<?xml version="1.0" encoding="utf-8"?>
<!-- Generator: Adobe Illustrator 19.2.1, SVG Export Plug-In . SVG Version: 6.00 Build 0)  -->
<svg version="1.1" id="Layer_1" xmlns="http://www.w3.org/2000/svg" xmlns:xlink="http://www.w3.org/1999/xlink" x="0px" y="0px"
	 viewBox="0 0 304 304" style="enable-background:new 0 0 304 304;" xml:space="preserve">
<style type="text/css">
	.st0{fill:#FFFFFF;}
</style>
<path class="st0" d="M301,150.5c-0.1-12.1-1.7-23.9-4.6-35.2c-2.1,4.9-5.8,9.1-10.6,11.9l-1,0.6c1.2,6.4,1.9,12.9,2.1,19.6l-3.2,1.8
	l0,0l-13.4,7.7c-2.2,1.3-4.8,1.3-7,0l-12.7-7.4c-2.3-1.3-2.3-4.7,0-6.1l33.4-19.3c8.3-4.8,12.3-14.2,10.6-23.1
	c-0.7-3.8-2.9-7.2-6-9.6l-22.2-17c-11.3-8.6-25.2-13.3-39.4-13.3l-39.8,0.1c-2.8,0-5.1,2.3-5.2,5.1l0,0
	c-0.2,15.6,6.7,32.6,20.4,43.6c0.9,0.7,0.2,2-0.8,1.8c-4.3-0.8-11.8-3.8-18.9-14.2c-1.3-1.9-3.7-2.8-6-2.1c-1.4,0.4-2.7,0.9-3.6,1.2
	c-2.7,1.2-6.3,2.8-9.9,4.9c-7.6,4.4-44.3,26.2-54,69.1c0,0-2.1,22.9-20.8,33.7c-17.6,10.2-47.1,14.4-63.1-13.4
	c-11.9-20.6-2.3-43.2,13.4-52.3c15.5-8.9,31.1-0.8,37,9.5c5.5,9.5,1.9,20.7-6.5,25.6c-7.7,4.5-14.9-0.4-17.1-4.3
	c-1.8-3.1-6.1-4.9-10-2.7c-2.9,1.7-4.5,5.8-2.2,9.7c7.4,12.8,23.8,17.3,36.6,10c16-9.3,21.9-29.7,12.5-45.9
	c-11.6-20.1-37.6-27.9-58.4-15.9c-24.3,14-36.8,46.4-20.3,75c21.4,37.1,66.1,44.2,96.7,26.6l0,0l30.6-17.6c2.3-1.3,5.3,0.3,5.3,3
	v16.7c0,1.2-0.7,2.4-1.7,3l-57.7,33.3c-8.4-5.3-16.2-11.5-23.4-18.7c-3.2-3.2-6.3-6.6-9.2-10.1c-9.5-2.8-18.3-7.4-26-13.7
	c12.7,23.3,31.6,42.8,54.4,56.4c0.3,0.2,0.6,0.4,1,0.6c21.7,12.6,46.9,19.9,73.8,19.9c81.2,0,147-65.8,147-147c0-0.1,0-0.2,0-0.3
	C301,151.4,301,150.9,301,150.5z M238.1,76.8c10-5.8,22.9-2.4,28.7,7.7c5.8,10,2.4,22.9-7.7,28.7c-10,5.8-22.9,2.4-28.7-7.7
	C224.6,95.5,228,82.6,238.1,76.8z M156.8,201.6c0-2.5,1.3-4.8,3.5-6.1l67.6-39c2.2-1.3,4.8-1.3,7,0l15.4,8.9c1.2,0.7,1.2,2.4,0,3
	l-5.8,3.3c-1.1,0.6-2.4,0.6-3.5,0l-14.5-8.4c-1.1-0.6-2.4-0.6-3.5,0l-9.6,5.6c-1.2,0.7-1.2,2.4,0,3l12.8,7.4c1.2,0.7,1.2,2.4,0,3
	l-8.2,4.8l-28.1,16.2c-1.1,0.6-2.4,0.6-3.5,0l-15.4-8.9c-0.5-0.3-1.2-0.3-1.8,0l-6,3.4c-1.1,0.6-1.8,1.8-1.8,3v3.2
	c0,0.6,0.3,1.2,0.9,1.5l9.1,5.2c1.2,0.7,1.2,2.4,0,3l-12.1,7c-1.2,0.7-2.6-0.2-2.6-1.5v-17.6H156.8z M248,246.1
	c-25.1,25.1-58.5,39-94,39c-19.8,0-38.9-4.3-56.3-12.4l177.6-102.5l11.2-6.5C283.8,194.8,270.4,223.8,248,246.1z M244,97.6
	c-1.4-2.5-0.6-5.7,1.9-7.2c2.5-1.4,5.7-0.6,7.2,1.9c1.4,2.5,0.6,5.7-1.9,7.2S245.5,100.1,244,97.6z M7.2,143.4
	C11.8,66.2,75.7,5.1,154,5.1c56.5,0,105.5,31.8,130.1,78.5l-15.6-11.9c-4.9-3.8-10.4-6.8-16.1-9.1c-1.4-1.6-2.9-3.1-4.4-4.6
	c-25.1-25.1-58.5-38.9-94-38.9s-68.9,13.8-94,39c-18.7,18.6-31.1,41.8-36.3,67C17,130,11.4,136.1,7.2,143.4z"/>
</svg>
