<?xml version="1.0" encoding="utf-8"?>
<!-- Generator: Adobe Illustrator 19.2.1, SVG Export Plug-In . SVG Version: 6.00 Build 0)  -->
<svg version="1.1" id="Layer_1" xmlns="http://www.w3.org/2000/svg" xmlns:xlink="http://www.w3.org/1999/xlink" x="0px" y="0px"
	 viewBox="0 0 300 300" style="enable-background:new 0 0 300 300;" xml:space="preserve">
<style type="text/css">
	.st0{fill:#FFFFFF;}
</style>
<path id="Negative_1_" class="st0" d="M290.7,107.5c2.5,8.3,4.4,16.9,5.4,25.7c0.3,2.8-1,5.5-3.5,6.9l-6,3.5c0,0,0,0,0,0
	c0,0,0,0,0,0l-5.7,3.3l-1,0.6c0,0,0,0,0,0l-13.4,7.7c-2.2,1.3-4.8,1.3-7,0l-12.7-7.4c-2.3-1.3-2.3-4.7,0-6.1l33.4-19.3
	C285.8,119.1,289.5,113.5,290.7,107.5z M167.6,209.2l-9.1-5.2c-0.5-0.3-0.9-0.9-0.9-1.5l0-3.2c0-1.3,0.7-2.4,1.8-3l6-3.4
	c0.5-0.3,1.2-0.3,1.8,0l15.4,8.9c1.1,0.6,2.4,0.6,3.5,0l28.1-16.2l8.1-4.7c1.2-0.7,1.2-2.4,0-3l-12.8-7.4c-1.2-0.7-1.2-2.4,0-3
	l9.6-5.6c1.1-0.6,2.4-0.6,3.5,0l14.5,8.4c1.1,0.6,2.4,0.6,3.5,0l5.8-3.3c1.2-0.7,1.2-2.4,0-3l-15.4-8.9c-2.2-1.3-4.8-1.3-7,0
	l-67.6,39c-2.2,1.3-3.5,3.6-3.5,6.1v17.8c0,1.3,1.5,2.2,2.6,1.5l6.8-3.9l5.4-3.1C168.7,211.5,168.7,209.9,167.6,209.2z M256.3,94.3
	c3.7-1,7.5,1.2,8.5,4.9c1.5-5.3,1-11.2-2-16.3c-5.8-10-18.6-13.5-28.7-7.7c-10,5.8-13.5,18.6-7.7,28.7c5.8,10,18.6,13.5,28.7,7.7
	c1.8-1,3.3-2.3,4.6-3.7c-3.7,0.9-7.5-1.3-8.5-5C250.3,99.2,252.5,95.3,256.3,94.3z M294.3,155.2l-0.7,0.4l0,0l-4.7,2.7l-17.3,10
	L82.1,277.8c-1.2,0.7-1.2,2.4,0.1,3.1c20.3,10.6,43.4,16.6,67.9,16.6c79.1,0,143.5-62.4,146.9-140.6
	C297,155.4,295.5,154.5,294.3,155.2z M32.3,119.5c20.8-12,46.8-4.2,58.4,15.9c9.4,16.2,3.5,36.7-12.5,45.9
	c-12.7,7.4-29.2,2.9-36.6-10c-2.2-3.9-0.6-8.1,2.2-9.7c3.9-2.2,8.2-0.4,10,2.7c2.2,3.9,9.4,8.8,17.1,4.3c8.4-4.8,12-16,6.5-25.6
	c-5.9-10.3-21.5-18.4-37-9.5c-15.7,9.1-25.3,31.7-13.4,52.3c16,27.8,45.5,23.6,63.1,13.4c17.3-10,21.8-24.8,25.2-35.9
	c12.7-42.1,36.3-58.9,43.9-63.3c3.6-2.1,7.2-3.7,9.9-4.9c0.9-0.4,2.2-0.8,3.6-1.2c2.2-0.7,4.7,0.2,6,2.1c7,10.4,14.5,13.4,18.9,14.2
	c1.1,0.2,1.7-1.1,0.8-1.8c-13.7-11.1-20.6-28-20.4-43.6h0c0-2.8,2.3-5.1,5.2-5.1l39.8-0.1c14.2,0,28.1,4.6,39.4,13.3L283.6,89
	C260.4,38.5,209.3,3.4,150.1,3.4C69,3.4,3.2,69.2,3.1,150.3c0,8.1,0.6,15.9,1.9,23.6C2.1,151.7,13.8,130.2,32.3,119.5z M75.8,265.2
	c0.1,0,0.2-0.1,0.2-0.1l61.1-35.3c1.1-0.6,1.7-1.8,1.7-3v-16.7c0-2.7-2.9-4.4-5.3-3l-24.9,14c-30.6,17.6-75.3,10.5-96.7-26.6
	c-2.9-5.1-4.9-10.3-6.1-15.4c7.2,36.3,27.7,67.8,56.2,89.2c2.2,1.7,5.3,1.9,7.7,0.5l5.8-3.3C75.6,265.3,75.7,265.2,75.8,265.2z"/>
</svg>
